<?xml version="1.0" ?><svg id="Layer_1_1_" style="enable-background:new 0 0 64 64;" version="1.1" viewBox="0 0 64 64" xml:space="preserve" xmlns="http://www.w3.org/2000/svg" xmlns:xlink="http://www.w3.org/1999/xlink"><circle cx="10" cy="48" r="4"/><path d="M13.5,52H10H6.5C4.567,52,3,53.791,3,56v7h14v-7C17,53.791,15.433,52,13.5,52z"/><circle cx="52" cy="48" r="4"/><path d="M55.5,52H52h-3.5c-1.933,0-3.5,1.791-3.5,4v7h14v-7C59,53.791,57.433,52,55.5,52z"/><path d="M55,30.733c0-0.339,0.181-0.64,0.457-0.836C56.994,28.812,58,27.025,58,25c0-3.553-3.088-6.384-6.726-5.957  c-2.621,0.308-4.793,2.388-5.199,4.996c-0.375,2.412,0.691,4.602,2.466,5.858c0.278,0.196,0.459,0.5,0.459,0.84V33h6V30.733z"/><rect height="3" width="2" x="51" y="14"/><rect height="2" width="3" x="60" y="24"/><rect height="2" width="3" x="41" y="24"/><rect height="3" transform="matrix(0.707 -0.7072 0.7072 0.707 0.3376 37.3795)" width="2" x="44.283" y="16.782"/><rect height="2" transform="matrix(0.7071 -0.7071 0.7071 0.7071 4.2705 46.8743)" width="3" x="57.218" y="17.282"/><rect height="2" width="5" x="49.5" y="34"/><path d="M26.5,25.5c0,1.105,0.895,2,2,2s2-0.895,2-2v-8h-4V25.5z"/><path d="M33,2H7C5.346,2,4,3.346,4,5v27c0,1.654,1.346,3,3,3h5.847l-0.837,5.858c-0.06,0.414,0.146,0.821,0.513,1.021  C12.673,41.96,12.837,42,13,42c0.237,0,0.472-0.084,0.659-0.247L21.376,35H33c1.654,0,3-1.346,3-3V5C36,3.346,34.654,2,33,2z M34,32  c0,0.552-0.449,1-1,1H21c-0.242,0-0.476,0.088-0.659,0.247l-5.97,5.225l0.618-4.33c0.041-0.287-0.044-0.578-0.234-0.797  S14.29,33,14,33H7c-0.551,0-1-0.448-1-1V5c0-0.552,0.449-1,1-1h26c0.551,0,1,0.448,1,1V32z"/><path d="M52,39c1.105,0,2-0.895,2-2h-4C50,38.105,50.895,39,52,39z"/><path d="M26,25.5V8H10v20h18l-0.011-0.053C26.855,27.71,26,26.704,26,25.5z M18,26c-0.552,0-1-0.448-1-1c0-0.552,0.448-1,1-1  s1,0.448,1,1C19,25.552,18.552,26,18,26z M19,18.873V23h-2v-5c0-0.553,0.448-1,1-1c1.103,0,2-0.897,2-2s-0.897-2-2-2s-2,0.897-2,2  h-2c0-2.206,1.794-4,4-4s4,1.794,4,4C22,16.86,20.723,18.429,19,18.873z"/></svg>